{"title":"Real Steel[2011]ENG[DvDRip]Xvid-{RedDragon}","uid":6931166,"size":840091267,"categoryP":"video","categoryS":"movies","magnet":"?xt=urn:btih:605952ddd0409804882ecebb52f4d59e79846f5f&amp;dn=Real+Steel%5B2011%5DENG%5BDvDRip%5DXvid-%7BRedDragon%7D&amp;tr=udp%3A%2F%2Ftracker.openbittorrent.com%3A80&amp;tr=udp%3A%2F%2Fopen.demonii.com%3A1337&amp;tr=udp%3A%2F%2Ftracker.coppersurfer.tk%3A6969&amp;tr=udp%3A%2F%2Fexodus.desync.com%3A6969","seeders":0,"leechers":1,"uploader":"RedDr4gon","files":9,"time":1325667728,"description":"General\n\nComplete name                    : Real.Steel.[2011].ENG.[DvDRip].Xvid.-.{RedDragon}.avi\nFormat                           : AVI\nFormat/Info                      : Audio Video Interleave\nFile size                        :  MiB\nDuration                         : 2h 6mn\nOverall bit rate                 : 883 Kbps\nRelease Date                     : 7 October 2011 (India)\nIMDb                             : http://www.imdb.com/title/tt0433035/\n\nVideo\n\nID                               : 0\nFormat                           : MPEG-4 Visual\nFormat profile                   : Advanced Simple@L5\nFormat settings, BVOP            : Yes\nFormat settings, QPel            : No\nFormat settings, GMC             : No warppoints\nFormat settings, Matrix          : Default (H.263)\nCodec ID                         : XVID\nCodec ID/Hint                    : XviD\nDuration                         : 2h 6mn\nBit rate                         : 739 Kbps\nWidth                            : 640 pixels\nHeight                           : 272 pixels\nDisplay aspect ratio             : 2.35:1\nFrame rate                       : 23.976 fps\nColor space                      : YUV\nChroma subsampling               : 4:2:0\nBit depth                        : 8 bits\nScan type                        : Progressive\nBits/(Pixel*Frame)               : 0.177\nStream size                      : 670 MiB (84%)\nWriting library                  : XviD 1.2.1 (UTC 2008-12-04)\n\nAudio\n\nID                               : 1\nFormat                           : MPEG Audio\nFormat version                   : Version 1\nFormat profile                   : Layer 3\nMode                             : Joint stereo\nMode extension                   : MS Stereo\nCodec ID                         : 55\nCodec ID/Hint                    : MP3\nDuration                         : 2h 6mn\nBit rate mode                    : Variable\nBit rate                         : 132 Kbps\nNominal bit rate                 : 144 Kbps\nChannel(s)                       : 2 channels\nSampling rate                    : 48.0 KHz\nStream size                      : 119 MiB (15%)\nAlignment                        : Aligned on interleaves\nInterleave, duration             : 24 ms (0.58 video frame)\nInterleave, preload duration     : 64 ms\n \n\nFORUMS. \n \n \nPlease Join my Forums :\n &lt;a href=&quot;\nhttp://discussionforums.freeforhosting.com/&quot; rel=&quot;nofollow&quot; target=&quot;_NEW&quot;&gt;\nhttp://discussionforums.freeforhosting.com/&lt;/a&gt;    --&gt; Discussion Forum.","torrent":{"xt":"urn:btih:605952ddd0409804882ecebb52f4d59e79846f5f","amp;dn":"Real+Steel%5B2011%5DENG%5BDvDRip%5DXvid-%7BRedDragon%7D","amp;tr":["udp%3A%2F%2Ftracker.openbittorrent.com%3A80","udp%3A%2F%2Fopen.demonii.com%3A1337","udp%3A%2F%2Ftracker.coppersurfer.tk%3A6969","udp%3A%2F%2Fexodus.desync.com%3A6969"],"infoHash":"605952ddd0409804882ecebb52f4d59e79846f5f","infoHashBuffer":{"type":"Buffer","data":[96,89,82,221,208,64,152,4,136,46,206,187,82,244,213,158,121,132,111,95]},"announce":[],"urlList":[]}}